<?xml version="1.0" standalone="no"?>
<!DOCTYPE svg PUBLIC "-//W3C//DTD SVG 20010904//EN"
 "http://www.w3.org/TR/2001/REC-SVG-20010904/DTD/svg10.dtd">
<svg version="1.0" xmlns="http://www.w3.org/2000/svg"
 width="1920.000000pt" height="1920.000000pt" viewBox="0 0 1920.000000 1920.000000"
 preserveAspectRatio="xMidYMid meet">

<g transform="translate(0.000000,1920.000000) scale(0.100000,-0.100000)"
fill="#000000" stroke="none">
<path d="M0 9600 l0 -9600 9600 0 9600 0 0 9600 0 9600 -9600 0 -9600 0 0
-9600z m8611 2189 c131 -62 185 -147 200 -314 10 -119 28 -164 83 -212 43 -38
79 -50 184 -57 117 -9 185 -37 253 -105 103 -103 94 34 97 -1470 2 -1163 1
-1321 -13 -1375 -42 -164 -177 -255 -379 -256 -64 0 -122 -26 -163 -73 -39
-44 -50 -80 -58 -188 -10 -138 -55 -226 -145 -287 -94 -64 -67 -62 -1010 -62
-943 0 -916 -2 -1010 62 -90 61 -135 149 -145 287 -8 103 -19 142 -51 181 -47
55 -88 72 -196 82 -156 13 -242 55 -306 148 -65 94 -63 31 -60 1481 l3 1314
29 62 c33 72 95 135 162 165 25 11 87 24 137 30 129 14 163 24 207 64 48 44
67 95 75 202 3 45 15 107 26 136 36 99 130 180 236 205 21 5 424 9 913 8 l875
-2 56 -26z m3890 0 c131 -62 185 -146 200 -315 12 -120 29 -164 83 -211 43
-38 79 -50 184 -57 117 -9 185 -37 253 -105 103 -103 94 34 97 -1470 2 -1163
1 -1321 -13 -1375 -42 -163 -178 -256 -377 -256 -59 0 -103 -17 -151 -59 -45
-40 -64 -93 -72 -199 -12 -180 -87 -286 -234 -332 -61 -19 -90 -20 -921 -20
-816 0 -861 1 -919 19 -142 44 -213 140 -232 313 -14 123 -24 161 -55 197 -47
56 -88 73 -195 82 -136 12 -200 38 -270 108 -102 104 -94 -31 -94 1501 l0
1335 29 62 c33 72 95 135 162 165 25 11 87 24 137 30 129 14 163 24 207 64 48
44 67 95 75 202 3 45 15 107 26 136 36 99 130 180 236 205 21 5 424 9 913 8
l875 -2 56 -26z"/>
<path d="M6890 11051 c-69 -21 -121 -65 -156 -131 -18 -33 -19 -81 -22 -1000
-2 -531 0 -988 3 -1017 15 -128 138 -198 249 -143 23 11 48 30 57 43 174 243
1365 2012 1372 2037 21 76 -18 160 -93 198 l-44 22 -671 -1 c-368 0 -681 -4
-695 -8z"/>
<path d="M8430 10389 c-14 -6 -36 -20 -49 -32 -25 -24 -1329 -1924 -1348
-1966 -7 -14 -12 -43 -13 -63 0 -73 35 -127 105 -159 38 -17 79 -19 683 -19
437 0 657 4 687 11 54 14 118 67 148 123 l22 41 3 953 c2 630 -1 966 -8 991
-26 99 -137 157 -230 120z"/>
<path d="M10780 11051 c-69 -21 -121 -65 -156 -131 -18 -33 -19 -81 -22 -1000
-2 -531 0 -988 3 -1017 16 -130 143 -200 254 -140 37 20 114 129 728 1032 378
556 691 1026 696 1045 21 76 -18 160 -93 198 l-44 22 -671 -1 c-368 0 -681 -4
-695 -8z"/>
<path d="M12315 10386 c-16 -8 -42 -26 -56 -42 -32 -36 -1319 -1917 -1336
-1953 -7 -14 -12 -43 -13 -63 0 -73 35 -127 105 -159 38 -17 79 -19 683 -19
437 0 657 4 687 11 54 14 118 67 148 123 l22 41 3 953 c2 630 -1 966 -8 991
-27 102 -141 159 -235 117z"/>
</g>
</svg>
